<svg id="Layer_2" data-name="Layer 2" xmlns="http://www.w3.org/2000/svg" viewBox="0 0 474.35 225.62"><defs><style>.cls-1{fill:#fff;}.cls-2{fill:#ccc;}.cls-3{fill:#999;}</style></defs><path class="cls-1" d="M363.21,152.06c-13.91,0-27.83.05-41.74,0a18.89,18.89,0,0,1-19.16-16.65,24.88,24.88,0,0,1,15.37-26.11,2.55,2.55,0,0,0,1.9-2.4c2-15.17,12.09-25.78,27-28.55,12.61-2.33,26.32,4.07,32.9,15.51a3.39,3.39,0,0,0,3.42,1.9c10.76.18,18.77,5.1,24,14.47a3.47,3.47,0,0,0,2.38,1.86,20.84,20.84,0,0,1,14.86,18.39c.73,8.88-3.28,16.48-10.94,19.75a23.88,23.88,0,0,1-8.85,1.77C390.66,152.16,376.93,152.06,363.21,152.06Z" transform="translate(-14.65 -77.86)"/><path class="cls-2" d="M478.14,192.54l-93.28,21.14a115.48,115.48,0,0,1-11.39,2q-3.51.47-7,.88c-187.08,23-286.74-5.5-294.94-53.23-.09-.47-2.21-10.17-2.28-10.65V119.18a7.55,7.55,0,0,1,7.55-7.55H97a18.84,18.84,0,0,1,17.78,12.6l11.07,31.51,267-19.66c17.05.63,27.51,12.64,38.11,31.19,2.26,3.95,5.22,5,9.42,6.79l38.25,14.11.12.05A2.27,2.27,0,0,1,478.14,192.54Z" transform="translate(-14.65 -77.86)"/><path class="cls-3" d="M487.84,208.33c-8.16,22.44-340.43,43.71-380.17,27.82s-35.76-37.09-36.58-37.24S69.26,162,69.26,162v-9.28c.07.48,2.19,10.18,2.28,10.65,8.2,47.73,107.86,76.21,294.94,53.23q3.48-.42,7-.88a115.48,115.48,0,0,0,11.39-2l93.28-21.14a2.27,2.27,0,0,0,.53-4.32C480,188.79,492.86,194.53,487.84,208.33Z" transform="translate(-14.65 -77.86)"/><path class="cls-1" d="M435.4,264.66c-11.95,0-23.91,0-35.86,0-8.64,0-15.29-5.81-16.46-14.13a21.06,21.06,0,0,1,13.21-22.14,2.19,2.19,0,0,0,1.63-2c1.72-12.87,10.38-21.88,23.21-24.22a27.74,27.74,0,0,1,28.26,13.15,2.89,2.89,0,0,0,2.93,1.61c9.26.16,16.13,4.33,20.64,12.28a3,3,0,0,0,2,1.58,17.76,17.76,0,0,1,12.77,15.6c.62,7.53-2.82,14-9.41,16.76a20.71,20.71,0,0,1-7.6,1.5C459,264.74,447.19,264.66,435.4,264.66Z" transform="translate(-14.65 -77.86)"/><path class="cls-1" d="M79.74,264.41c-14.81,0-29.63.06-44.45,0-10.71,0-19-7.3-20.41-17.74a26.48,26.48,0,0,1,16.38-27.8,2.73,2.73,0,0,0,2-2.56c2.14-16.16,12.88-27.46,28.78-30.41,13.43-2.48,28,4.34,35.05,16.52a3.58,3.58,0,0,0,3.63,2c11.47.19,20,5.43,25.58,15.41a3.72,3.72,0,0,0,2.53,2,22.19,22.19,0,0,1,15.83,19.58c.78,9.46-3.5,17.55-11.66,21a25.44,25.44,0,0,1-9.42,1.88C109,264.52,94.36,264.42,79.74,264.41Z" transform="translate(-14.65 -77.86)"/><path d="M313.21,221.91a5.34,5.34,0,0,1-2.34,7.46,12,12,0,0,0-1.65.92c-35.17,23.47-70.26,47.06-105.47,70.47a14.91,14.91,0,0,1-7.86,2.51c-10.81.28-21.64.24-32.46.08-7.67-.12-9.76-3.77-5.52-10.07q21.75-32.34,44-64.36a12.5,12.5,0,0,1,8-4.52,222,222,0,0,1,23.08-.9c24.24-.1,49.09-2,73.34-1.93,2.52,0,4.1-.17,6.62,0Z" transform="translate(-14.65 -77.86)"/><path d="M261.33,146.07c-7.14.6-15.38.67-22.52,1.33-15.77,1.46-32.41,1.9-48.16,3.53-4.77.5-7.88-1.28-10.46-5.18-7.18-10.83-14.73-21.42-21.78-32.33-1.5-2.33-2.59-5.94-1.86-8.35.44-1.43,4.78-2.1,7.43-2.31,4.6-.37,9.3.3,13.87-.18,14.9-1.59,27.67,2.08,39.72,11.59,12.49,9.84,26.24,18.08,39.55,26.89a11.32,11.32,0,0,1,4.1,4.58A1,1,0,0,1,261.33,146.07Z" transform="translate(-14.65 -77.86)"/><path d="M429.66,169.57c-10.07,1.32-20.11,3.27-30.22,3.74-6.79.32-11.61-4.56-15.27-10.07-1.79-2.7-1.74-4.91,2-5.92,9.32-2.52,18.59-5.26,28-7.56,1.81-.45,4.93,0,5.86,1.21,3.78,5,7.51,11,10.9,16.3C430.67,168.21,429.87,168.63,429.66,169.57Z" transform="translate(-14.65 -77.86)"/><path d="M296.85,172.72c6.52.09,10.53,3.94,10.43,10a11.12,11.12,0,0,1-10.57,10.49c-5.67.1-11-5.29-10.89-10.94S290.46,172.63,296.85,172.72Z" transform="translate(-14.65 -77.86)"/><path d="M187.06,197.37c-6.08-.06-10.07-4.18-10.15-10.47-.06-5.47,4.88-10.86,10.09-11,5.42-.13,10.62,5.47,10.44,11.26C197.24,193.52,193.26,197.43,187.06,197.37Z" transform="translate(-14.65 -77.86)"/><path d="M241.17,195.79c-5.94,0-11.06-5.09-10.92-10.86a10.57,10.57,0,0,1,21.14.07C251.49,190.55,246.54,195.78,241.17,195.79Z" transform="translate(-14.65 -77.86)"/></svg>